<svg class="icon" viewBox="0 0 1253 1024" xmlns="http://www.w3.org/2000/svg" width="58.734" height="48"><defs><style/></defs><path d="M531.326 449.684c0 32.088-18.086 58.086-40.365 58.086-22.298 0-40.365-25.998-40.365-58.086s18.05-58.122 40.365-58.122c22.279 0 40.365 26.016 40.365 58.122zm324.797 0c0 32.088-18.068 58.086-40.365 58.086-22.28 0-40.365-25.998-40.365-58.086s18.086-58.122 40.365-58.122c22.297 0 40.365 26.016 40.365 58.122zm-192.618 76.3a15.132 15.132 0 1 1-30.283 0 15.132 15.132 0 0 1 30.283 0zm-50.41 38.286a4.868 4.868 0 0 1 9.17-3.245 27.603 27.603 0 0 0 25.98 18.378c11.632 0 22.06-7.384 25.962-18.378a4.868 4.868 0 1 1 9.17 3.245 37.375 37.375 0 0 1-35.132 24.868 37.375 37.375 0 0 1-35.15-24.868zm639.73-63.19c-107.62-21.514-170.028-21.55-236.1-18.725-2.406 7.986-5.104 15.77-8.204 23.228 65.233 1.914 132.581 29.207 243.102 60.401l-1.313 4.667c-111.159-31.358-179.272-58.469-243.849-60.237-32.598 73.966-103.355 121.569-250.776 136.19 25.287 17.157 51.158 49.7 51.158 111.104V915.23s3.245 38.961 38.96 51.96c0 0 21.095 14.586-1.64 22.717 0 0-99.035 8.113-99.035-73.073V796.688s3.92-44.303-19.471-62.517v195.663s1.604 47.074 25.962 64.94c0 0 16.226 29.226-19.471 21.113 0 0-68.187-9.736-71.45-89.299l-1.55-199.728h-16.39l-1.55 199.728c-3.245 79.563-71.45 89.299-71.45 89.299-35.734 8.113-19.471-21.112-19.471-21.112 24.357-17.867 25.961-64.941 25.961-64.941V732.476c-23.39 16.554-19.47 64.212-19.47 64.212v120.146c0 81.186-99.054 73.073-99.054 73.073-22.735-8.113-1.622-22.735-1.622-22.735 35.734-12.98 38.98-51.96 38.98-51.96V805.02c-153.42 34.22-185.198-72.435-185.198-72.435-24.358-62.535-59.69-79.198-59.69-79.198-49.135-33.692 3.646-32.89 3.646-32.89 54.421 4.065 82.844 56.044 82.844 56.044 50.776 87.348 135.425 56.135 162.153 43.355 8.131-37.922 28.131-60.347 47.767-73.529-138.251-14.913-215.954-62.352-255.371-135.825-65.343 2.005-178.962 39.052-287.75 69.736l-1.332-4.686c107.95-30.447 220.585-67.712 286.548-69.827-3.847-7.657-7.293-15.552-10.393-23.683-66.71-2.534-173.364-11.413-277.34 9.371L0 486.676c103.374-20.674 209.373-11.978 276.483-9.535-14.02-39.326-19.763-84.558-19.763-134.987 0-66.783 24.139-121.26 63.683-163.94-6.308-15.478-27.128-77.757 6.527-161.897 0 0 51.541-16.317 168.315 63.355 48.989-13.436 101.496-20.054 153.474-20.054 47.239 0 94.404 5.47 138.743 16.536C900.59.438 950.6 16.317 950.6 16.317c28.369 70.922 18.05 126.31 10.32 151.232 44.211 44.12 71.45 102.116 71.45 174.605 0 50.556-3.282 95.88-14.221 135.279 66.545-2.79 128.442-2.553 235.644 18.87l-.966 4.776zm-364.67-162.336c-52.397-47.42-140.602-21.878-240.657-21.878-100.42 0-188.971-25.287-241.278 22.462-31.359 28.642-49.7 63.173-49.7 100.347 0 155.297 130.284 179.51 290.978 179.51 160.712 0 290.977-4.741 290.977-179.51 0-37.411-18.56-72.16-50.32-100.93z" fill="#17abe3"/></svg>